# xmcd CD database file
#
# Track frame offsets:
#	150
#	7955
#	27060
#	36499
#	47464
#	68976
#	76081
#	90166
#	113650
#	134810
#	147417
#	170748
#	185339
#	202653
#	217355
#	238565
#	271483
#	287881
#	296842
#
# Disc length: 4179 seconds
#
# Revision: 2
# Processed by: cddbd v1.5.2PL0 Copyright (c) Steve Scherf et al.
# Submitted via: CDex 1.70beta2
#
DISCID=19105113
DTITLE=Buscemi  and The Michael Bisceglia Ensemble - Vertov, l'uomo con la macchina da presa
DYEAR=2009
DGENRE=Jazz
TTITLE0=Ouverture
TTITLE1=L'Uomo Sulla Einepresa
TTITLE2=Il Mattino
TTITLE3=Manichini
TTITLE4=La Macchina Du Presa Mobile
TTITLE5=Pulizia
TTITLE6=Il Risveglio
TTITLE7=Il Lavaro
TTITLE8=L'Uomo Con La Macchina Da Presa
TTITLE9=La Donna Con Vista
TTITLE10=La Vita Quotidiana
TTITLE11=La Belezza
TTITLE12=Alla Miniera Di Carbone
TTITLE13=Rottura Di Tempo
TTITLE14=Corpo In Movimento
TTITLE15=Intrattenimento
TTITLE16=Il Ballo
TTITLE17=Il Cinematografo
TTITLE18=Corsa In Avanti
EXTD=YEAR: 2009
EXTT0=
EXTT1=
EXTT2=
EXTT3=
EXTT4=
EXTT5=
EXTT6=
EXTT7=
EXTT8=
EXTT9=
EXTT10=
EXTT11=
EXTT12=
EXTT13=
EXTT14=
EXTT15=
EXTT16=
EXTT17=
EXTT18=
PLAYORDER=
